<?xml version="1.0" encoding="UTF-8"?>
<svg id="Layer_1" data-name="Layer 1" xmlns="http://www.w3.org/2000/svg" xmlns:xlink="http://www.w3.org/1999/xlink" viewBox="0 0 16 32.24">
  <defs>
    <style>
      .cls-1 {
        fill: #fff;
      }

      .cls-2 {
        fill: url(#linear-gradient-4);
      }

      .cls-2, .cls-3, .cls-4, .cls-5, .cls-6, .cls-7, .cls-8, .cls-9 {
        stroke: #26382a;
        stroke-linecap: round;
        stroke-linejoin: round;
        stroke-width: .25px;
      }

      .cls-3 {
        fill: url(#linear-gradient-6);
      }

      .cls-4 {
        fill: url(#linear-gradient-8);
      }

      .cls-5 {
        fill: url(#linear-gradient-5);
      }

      .cls-6 {
        fill: url(#linear-gradient-2);
      }

      .cls-7 {
        fill: url(#linear-gradient);
      }

      .cls-8 {
        fill: url(#linear-gradient-3);
      }

      .cls-9 {
        fill: url(#linear-gradient-7);
      }
    </style>
    <linearGradient id="linear-gradient" x1="5" y1="19.28" x2="6.7" y2="19.28" gradientUnits="userSpaceOnUse">
      <stop offset=".12" stop-color="#37aa4f"/>
      <stop offset="1" stop-color="#fff"/>
    </linearGradient>
    <linearGradient id="linear-gradient-2" y1="14.9" x2="6.19" y2="14.9" xlink:href="#linear-gradient"/>
    <linearGradient id="linear-gradient-3" x1="6.62" y1="20.58" x2="8.67" y2="20.58" xlink:href="#linear-gradient"/>
    <linearGradient id="linear-gradient-4" x1="8.67" y1="20.24" x2="9.78" y2="20.24" xlink:href="#linear-gradient"/>
    <linearGradient id="linear-gradient-5" x1="5.18" y1="14.43" x2="7.8" y2="14.43" xlink:href="#linear-gradient"/>
    <linearGradient id="linear-gradient-6" x1="5.97" y1="12.02" x2="9.57" y2="12.02" xlink:href="#linear-gradient"/>
    <linearGradient id="linear-gradient-7" x1="7.85" y1="17.92" x2="11" y2="17.92" xlink:href="#linear-gradient"/>
    <linearGradient id="linear-gradient-8" x1="9.4" y1="13.04" x2="11" y2="13.04" xlink:href="#linear-gradient"/>
  </defs>
  <rect class="cls-1" y="8.12" width="16" height="16"/>
  <g>
    <text/>
    <path class="cls-7" d="m6.7,19.53l-.92.67c-.49-.49-.78-1.13-.78-1.84h1.2c0,.46.19.87.5,1.17Z"/>
    <path class="cls-6" d="m6.19,16.09c-.3-.21-.55-.46-.74-.75-.19-.28-.33-.6-.4-.93-.03-.17-.05-.34-.05-.52,0-.06,0-.12.01-.17l1.18,2.37Z"/>
    <path class="cls-8" d="m8.18,20.05l.49,1c-.22.05-.44.07-.67.07-.49,0-.97-.11-1.38-.31l1.05-.77h.01c.11.02.21.03.32.03.06,0,.12,0,.18-.02Z"/>
    <path class="cls-2" d="m9.78,20.58c-.19.13-.4.24-.63.33l-.48-.97c.23-.08.43-.21.6-.37l.51,1.01Z"/>
    <path class="cls-5" d="m7.8,16.64c-.31-.01-.59-.07-.87-.18l-1.75-3.5c.1-.27.24-.51.42-.73l.66,1.31h0s-.02.08-.03.12c-.02.08-.03.15-.03.23,0,.3.08.58.23.82.17.3.44.55.76.7l.61,1.23Z"/>
    <path class="cls-3" d="m9.57,11.52l-1.11.71c-.14-.04-.3-.06-.46-.06-.62,0-1.17.3-1.48.75l-.55-1.08c.53-.45,1.25-.73,2.03-.73.58,0,1.12.15,1.57.41Z"/>
    <path class="cls-9" d="m11,18.36c0,.73-.31,1.4-.82,1.89l-.57-1.14c.1-.19.15-.39.17-.6.02-.05.02-.1.02-.15,0-.33-.1-.63-.27-.89-.24-.39-.65-.67-1.13-.77l-.55-1.11s.1.01.15.01c1.02,0,1.92.47,2.47,1.19.2.27.35.57.44.9.06.21.09.44.09.67Z"/>
    <path class="cls-4" d="m11,13.89h-1.2c0-.4-.15-.77-.4-1.06l.97-.63c.39.47.63,1.06.63,1.69Z"/>
  </g>
</svg>